<svg width="158" height="140" viewBox="0 0 158 140" fill="none" xmlns="http://www.w3.org/2000/svg">
<g clip-path="url(#clip0_1109_93)">
<path d="M93.8179 32.1496C91.3032 34.1381 88.5534 35.712 85.6238 36.8433L80.8068 38.786C73.3453 42.1901 67.8905 45.0148 64.5871 47.1794C58.5718 51.1154 54.7836 55.4154 53.3207 59.9585C51.6755 65.0833 52.5577 70.2646 55.9432 75.3626C59.5274 80.7918 64.8467 84.1734 71.7579 85.4157C73.3411 85.7016 75.0983 85.9165 76.5735 86.0353L76.8567 82.3452C75.8242 82.282 74.7436 82.1532 73.6267 81.951C69.0863 81.1341 65.3059 79.2071 62.3823 76.2228C59.3233 73.121 58.3461 70.0131 59.4034 66.7256C61.4048 60.4974 68.3852 54.9804 80.1549 50.3159L85.4206 48.1966C90.0925 46.1569 94.1392 43.3563 97.4554 39.8644C100.739 36.3972 103.095 32.4881 104.46 28.2476C105.263 25.7564 105.504 22.5646 105.191 18.7654C104.749 13.6036 103.073 10.8314 100.051 10.2864C98.976 10.096 97.6949 10.3443 96.0284 11.0984C91.9634 12.986 88.7485 15.4947 86.4682 18.5408C84.7141 20.8678 83.1669 24.0836 81.873 28.0983C81.3337 29.7693 80.9233 32.9316 80.7861 36.7955L85.7604 34.4196C85.8438 33.9941 85.9607 33.5556 86.1108 33.0993C86.9296 30.5421 88.4595 27.8486 90.6451 25.0963C93.414 21.6581 95.4853 20.7787 96.7395 20.6483C97.0824 20.6124 97.4061 20.6249 97.7406 20.6846C99.2727 20.9616 100.706 21.6445 99.7512 24.6263C98.943 27.1545 96.9447 29.684 93.8179 32.1496Z" fill="#578462" fill-opacity="0.58"/>
<path d="M91.5492 86.1883C94.5464 85.6302 97.2474 84.5386 99.5957 82.9354C102.593 80.9044 104.612 78.306 105.605 75.2146C106.834 71.4205 106.379 67.7766 104.269 64.3833C101.953 60.6657 98.1553 58.309 92.9764 57.3752C92.3836 57.2684 91.7454 57.1878 91.0794 57.1382L91.3683 50.8349L86.0817 52.7719L85.8032 57.2335C82.7906 57.7251 80.03 58.7598 77.5745 60.3167C74.7424 62.1341 72.9016 64.2997 72.1107 66.7565C71.2929 69.3089 71.5337 71.7753 72.8311 74.0731C73.5004 75.2964 74.5465 76.4424 75.818 77.433C77.9054 79.0502 80.68 79.3093 81.2785 78.6556C81.8819 78.0025 80.502 76.6755 79.5607 75.0215C79.0227 74.0845 78.8942 73.0269 79.1668 71.8363C79.7452 69.3099 82.3129 67.4069 85.4815 66.8286L84.6158 83.0232L84.4191 86.7814C84.4399 88.5814 84.4579 90.3734 84.4626 92.1426C84.4171 94.5298 84.1271 96.5666 83.5983 98.1957C82.8717 100.453 81.4769 102.193 79.4483 103.372C78.1576 104.121 76.7592 104.518 75.2522 104.643C77.5041 103.474 79.1459 101.671 79.6418 99.5043C80.6321 95.179 76.6718 91.0513 70.7959 90.2886C69.1647 90.0769 67.5715 90.1696 66.0804 90.4729C65.8925 90.5056 65.7085 90.5677 65.5206 90.6119C65.1067 90.7149 64.6924 90.8179 64.2968 90.9554C64.1603 91.0067 64.0268 91.069 63.891 91.1259C61.2001 92.1841 59.1663 94.0594 58.4858 96.4103C58.485 96.4139 58.4787 96.4171 58.4779 96.4207C58.4775 96.4225 58.4771 96.4243 58.4766 96.4264C58.4447 96.537 58.3844 96.6321 58.3593 96.7417C58.3381 96.8345 58.3516 96.9222 58.3366 97.0117C57.7503 99.5485 58.6827 101.918 61.1509 104.06C63.4848 106.084 66.5265 107.443 70.1904 108.102C72.2725 108.475 74.3458 108.561 76.3481 108.353C77.9848 108.182 79.6156 107.811 81.1833 107.252C84.9811 105.893 87.3631 103.781 88.2688 100.967C88.9601 98.8209 89.3999 96.2326 89.5688 93.2388L89.6995 86.4583L90.5562 67.0579C94.3147 68.1109 96.6796 71.0038 95.9887 74.0217C95.4978 76.1659 93.7809 79.4268 91.6172 80.9699L91.5492 86.1883Z" fill="#578462" fill-opacity="0.58"/>
<path d="M85.6699 88L85.6699 52L91.6949 52L91.6949 82.35L107.595 82.35L107.595 88L85.6699 88Z" fill="white" fill-opacity="0.96"/>
</g>
<path d="M60.2732 122.155C57.9764 121.384 56.0391 120.289 54.4613 118.87C52.898 117.456 51.7691 115.807 51.0747 113.925C50.3998 112.032 50.2463 110.008 50.6143 107.851L56.3436 108.851C56.1844 110.868 56.6535 112.627 57.7512 114.127C58.8633 115.633 60.3643 116.703 62.2541 117.337C63.3734 117.712 64.4858 117.892 65.5914 117.874C66.697 117.857 67.6672 117.617 68.5022 117.153C69.3516 116.694 69.9398 115.978 70.2667 115.004C70.413 114.568 70.4745 114.144 70.4511 113.731C70.4326 113.305 70.3267 112.897 70.1335 112.509C69.9549 112.125 69.6793 111.742 69.3067 111.358C68.9536 110.964 68.5155 110.583 67.9926 110.213L60.6861 105.093C60.0567 104.655 59.391 104.132 58.6892 103.525C58.0068 102.908 57.4021 102.179 56.8753 101.339C56.3679 100.49 56.0378 99.5216 55.8848 98.4351C55.7513 97.339 55.9162 96.1005 56.3797 94.7195C57.0578 92.6989 58.1349 91.1761 59.611 90.1512C61.1066 89.1166 62.8339 88.5479 64.7931 88.4453C66.7668 88.3475 68.8123 88.662 70.9298 89.3887C73.0763 90.1253 74.8707 91.1399 76.3131 92.4327C77.7603 93.7108 78.8215 95.2234 79.4968 96.9704C80.1721 98.7173 80.4179 100.636 80.2342 102.725L74.2575 101.811C74.3956 100.628 74.2597 99.5393 73.8495 98.5444C73.4588 97.5399 72.8521 96.6732 72.0292 95.9442C71.221 95.2201 70.2838 94.663 69.2179 94.2729C68.1761 93.9071 67.1485 93.7401 66.1351 93.772C65.141 93.7942 64.2653 94.0179 63.508 94.4431C62.7653 94.8731 62.2573 95.4952 61.9841 96.3092C61.7256 97.0796 61.7459 97.79 62.0452 98.4404C62.3494 99.0762 62.7943 99.6541 63.38 100.174C63.9851 100.685 64.612 101.154 65.2609 101.582L70.3597 105.04C71.0618 105.502 71.8341 106.068 72.6764 106.739C73.5187 107.41 74.2784 108.207 74.9553 109.129C75.6323 110.052 76.0835 111.117 76.3089 112.325C76.5489 113.538 76.4054 114.929 75.8786 116.499C75.3322 118.127 74.51 119.444 73.4122 120.451C72.3337 121.447 71.0837 122.16 69.6621 122.589C68.2405 123.017 66.72 123.186 65.1007 123.096C63.4959 123.01 61.8867 122.696 60.2732 122.155Z" fill="white" fill-opacity="0.99"/>
<defs>
<clipPath id="clip0_1109_93">
<rect width="135.478" height="101.482" fill="white" transform="matrix(0.99168 0.128724 -0.223167 0.97478 22.8389 0.259827)"/>
</clipPath>
</defs>
</svg>
