<svg width="141" height="129" viewBox="0 0 141 129" fill="none" xmlns="http://www.w3.org/2000/svg">
<g clip-path="url(#clip0_1733_7)">
<path d="M84.5767 35.5036C82.339 37.426 79.9128 38.9281 77.3472 39.9831L73.1255 41.8004C66.5726 45.0101 61.7703 47.6924 58.8463 49.7705C53.522 53.549 50.1055 57.7486 48.6858 62.2511C47.0887 67.3303 47.6692 72.5311 50.4112 77.7131C53.3131 83.2313 57.7826 86.7478 63.6993 88.1675C65.0546 88.4941 66.5625 88.754 67.8304 88.9108L68.2031 85.2304C67.3149 85.1406 66.3875 84.984 65.4314 84.7532C61.5444 83.8197 58.3514 81.7965 55.9341 78.7387C53.4041 75.56 52.6696 72.4289 53.6957 69.1707C55.6385 62.998 61.8501 57.6644 72.1621 53.3063L76.7768 51.324C80.8766 49.406 84.4637 46.7115 87.445 43.3073C90.3977 39.9269 92.5648 36.0809 93.8895 31.8783C94.6694 29.4094 94.9877 26.2258 94.8501 22.4209C94.6487 17.251 93.2997 14.4373 90.7125 13.8148C89.7925 13.5968 88.679 13.8119 87.2157 14.5226C83.6445 16.3042 80.7848 18.7285 78.7123 21.7139C77.1187 23.9942 75.6725 27.1681 74.417 31.147C73.8937 32.803 73.4297 35.9527 73.177 39.8107L77.5493 37.5645C77.636 37.1414 77.7521 36.7062 77.8974 36.254C78.6926 33.7196 80.1056 31.0672 82.0861 28.373C84.5936 25.0083 86.4104 24.1829 87.4965 24.0848C87.7934 24.0578 88.0722 24.0786 88.3586 24.1469C89.6701 24.4633 90.8823 25.1826 89.9552 28.1379C89.1702 30.6438 87.359 33.1201 84.5767 35.5036Z" fill="#474444" fill-opacity="0.3"/>
<path d="M80.7395 89.4497C83.3436 88.9692 85.7109 87.9479 87.7917 86.4062C90.4471 84.4538 92.2783 81.9091 93.2425 78.8452C94.4346 75.0852 94.1689 71.4318 92.4673 67.9863C90.5996 64.2114 87.4067 61.7582 82.9731 60.6916C82.4657 60.5696 81.918 60.4725 81.3455 60.4058L81.814 54.1139L77.1876 55.9134L76.7922 60.365C74.1772 60.7786 71.7605 61.7416 69.5889 63.2342C67.0833 64.9775 65.4204 67.0942 64.6529 69.5291C63.8588 72.0589 63.9807 74.5299 65.0196 76.8597C65.5541 78.0994 66.4163 79.2717 67.4784 80.2944C69.2222 81.9645 71.6058 82.2949 72.1447 81.657C72.6878 81.0199 71.544 79.6582 70.7898 77.9809C70.3585 77.0307 70.2845 75.9704 70.561 74.7876C71.1477 72.2777 73.4282 70.442 76.1808 69.9458L74.8706 86.1079L74.5702 89.8586C74.5254 91.6581 74.4787 93.4494 74.4211 95.2176C74.2988 97.6021 73.9778 99.6301 73.4651 101.245C72.76 103.482 71.4966 105.185 69.7061 106.31C68.5671 107.026 67.3473 107.387 66.0434 107.473C68.026 106.363 69.5046 104.603 70.0077 102.45C71.0121 98.1533 67.7406 93.9262 62.7001 93.0125C61.3008 92.7589 59.9237 92.8104 58.6272 93.0751C58.4641 93.103 58.3032 93.1603 58.1396 93.1996C57.7791 93.2919 57.4183 93.3842 57.0723 93.5114C56.9528 93.5591 56.8355 93.618 56.7165 93.6713C54.3591 94.6595 52.5399 96.4812 51.8713 98.813C51.8705 98.8166 51.865 98.8197 51.8641 98.8232C51.8641 98.8232 51.8633 98.8268 51.8628 98.8289C51.8315 98.9386 51.7762 99.0321 51.7507 99.141C51.7292 99.2331 51.7377 99.3211 51.7217 99.4102C51.1278 101.93 51.8494 104.322 53.9033 106.526C55.8455 108.609 58.4213 110.046 61.5579 110.799C63.3404 111.226 65.1254 111.365 66.8593 111.209C68.2767 111.08 69.696 110.751 71.0673 110.233C74.3897 108.972 76.5173 106.924 77.3963 104.135C78.0672 102.008 78.5365 99.4323 78.7863 96.4448L79.135 89.6719L80.549 70.3058C83.7536 71.455 85.6923 74.407 84.9914 77.4052C84.4935 79.5354 82.8994 82.75 80.9798 84.2363L80.7395 89.4497Z" fill="#474444" fill-opacity="0.3"/>
<path d="M76.9761 55.7133L81.4277 54.2959L80.9552 59.813L79.6703 59.6482L78.5815 59.5799L77.5019 59.6864L76.6217 59.8511L76.9761 55.7133Z" fill="white" stroke="white"/>
<path d="M74.238 98.5183L74.5654 94.1593L95.3498 95.6275L95.3761 95.1282L95.1201 99.9925L95.0224 99.9864L74.238 98.5183Z" fill="white" stroke="white"/>
<path d="M76.3017 70.9384C77.0454 70.4922 78.5341 69.9078 80.4029 70.7732" stroke="#FDFCFA"/>
<path d="M76.2238 70.4112C77.2407 70.0936 78.9401 69.9431 79.3332 72.2673" stroke="#FDFCFA"/>
<path d="M77.5987 70.2655C77.9204 70.2971 78.211 70.3344 78.5006 70.4796" stroke="#FDFCFA" stroke-linecap="round"/>
<path d="M77.6202 70.3306C77.7154 70.3399 77.8262 70.3468 77.9197 70.3094C78.1269 70.2266 78.3122 70.3201 78.5125 70.3397" stroke="#FDFCFA" stroke-linecap="round"/>
<path d="M78.5018 70.3072C78.444 70.2996 78.3976 70.2667 78.3404 70.26C78.2797 70.2528 78.2204 70.2498 78.1626 70.2303C78.1041 70.2106 78.0084 70.1997 77.9468 70.2213C77.8441 70.2575 77.7266 70.2383 77.6211 70.2591C77.4799 70.287 77.3257 70.3487 77.1868 70.3351" stroke="#FDFCFA" stroke-linecap="round"/>
<path d="M77.2525 70.2003C77.4041 70.198 77.5445 70.2086 77.6891 70.1926C77.8602 70.1737 78.0313 70.1826 78.1998 70.1991C78.3127 70.2102 78.4471 70.2136 78.5454 70.2723C78.5845 70.2957 78.6466 70.3196 78.6926 70.326C78.8328 70.3457 78.9472 70.508 79.0923 70.5222" stroke="#FDFCFA" stroke-linecap="round"/>
<path d="M78.2067 70.4351C78.35 70.4492 78.4934 70.4633 78.6368 70.4774C78.7028 70.4838 78.7585 70.5207 78.8213 70.5269C78.9397 70.5385 78.8664 70.5224 78.8101 70.456C78.7717 70.4107 78.7449 70.3925 78.6931 70.3643C78.6066 70.3171 78.7589 70.3295 78.7876 70.323C78.8027 70.3196 78.9194 70.3325 78.8639 70.327C78.7933 70.3201 78.7365 70.2831 78.6668 70.2763" stroke="#FDFCFA" stroke-linecap="round"/>
<path d="M76.2589 71.531L75.4788 84.0108L74.9243 90.4857L74.6257 93.9722L74.3564 97.1163L77.9482 97.312L78.3777 97.3542L79.3559 80.8757L79.6118 77.8873L79.8677 74.8989L80.1663 71.4124L79.8085 71.3772L78.0192 71.2016L75.8722 70.9907" stroke="white"/>
<path d="M77.0721 71.5166C77.1702 72.0552 77.1905 72.6614 77.1422 73.2256C77.1163 73.5284 77.0979 73.8325 77.0643 74.1353C77.0582 74.1905 77.0045 73.7344 76.9962 73.6839C76.9319 73.2939 76.8398 72.9101 76.7694 72.5228" stroke="#FFFEFE" stroke-linecap="round"/>
<path d="M76.7452 72.4891C76.7493 72.2763 76.72 72.134 76.8287 71.9357C76.9318 71.7476 77.2188 72.5892 77.2298 72.6239C77.3968 73.1488 77.5329 73.69 77.6604 74.2322C77.7498 74.612 77.7894 75.0369 77.9105 75.4025C77.947 75.5126 77.9387 75.1585 77.9388 75.0373C77.9394 74.3936 77.9005 73.7553 77.8718 73.1159C77.8448 72.5132 77.7718 71.8791 77.8243 71.2661C77.8291 71.2095 77.8251 70.7798 77.7886 70.9104C77.7392 71.0869 77.7467 71.2937 77.7452 71.4694C77.741 71.9716 77.7744 72.4731 77.8476 72.9601C77.8868 73.2211 77.9549 73.4704 78.0013 73.7285C78.0274 73.8741 78.0303 74.0262 78.0689 74.1677C78.0695 74.1697 78.1263 74.3486 78.1325 74.303C78.1647 74.0684 78.1721 73.8285 78.1932 73.5939C78.2895 72.5243 78.4305 71.4558 78.5221 70.3859C78.5533 70.0214 78.5907 71.1008 78.5907 71.4635C78.5907 72.3451 78.4913 73.2371 78.5414 74.1112C78.5522 74.3004 78.4911 74.5049 78.5189 74.6897C78.5381 74.8177 78.5212 74.4254 78.5121 74.2949" stroke="#FFFEFE" stroke-linecap="round"/>
<path d="M79.1976 71.6625C79.5094 72.7897 79.3067 74.067 79.2474 75.2599C79.2413 75.383 79.2376 76.0748 79.1289 75.6249C79.0511 75.303 79.0384 74.9532 79.0472 74.6124C79.0582 74.1866 79.0255 73.7642 78.9596 73.3534C78.9503 73.2953 78.913 72.8851 78.8226 72.8813C78.6079 72.8721 78.351 73.6069 78.2957 73.7312C77.9116 74.595 77.656 75.4171 77.5385 76.3408C77.4995 76.6474 77.4753 76.9528 77.4463 77.2595C77.4419 77.3057 77.4202 77.5957 77.3621 77.4343C77.0546 76.5799 76.8654 75.6329 76.6582 74.7336C76.5502 74.2649 76.44 73.7831 76.3813 73.2973C76.3253 72.8339 76.3975 74.2443 76.4468 74.7093C76.4894 75.1119 76.5225 75.4932 76.5005 75.9075C76.4673 76.5349 76.4492 77.1596 76.4208 77.7866C76.3869 78.5334 76.2983 79.2878 76.2342 80.0354C76.2097 80.3219 76.1852 80.6084 76.1606 80.8949C76.1427 81.1046 76.1399 81.7234 76.1007 81.5239C76.0534 81.2828 76.0696 80.9784 76.0542 80.7328C76.0162 80.1266 75.9704 79.5231 75.9697 78.9108C75.9687 78.0057 76.0005 77.0928 76.0257 76.1852C76.0443 75.5132 76.0842 74.8234 76.1879 74.1503C76.2277 73.8923 76.282 73.636 76.3396 73.3804C76.3663 73.2618 76.3815 73.0867 76.4339 73.2972C76.7949 74.7479 76.6967 76.3526 76.6879 77.8808C76.6811 79.0641 76.652 80.246 76.6078 81.4324C76.5838 82.0746 76.6002 82.7146 76.545 83.3585C76.4625 84.3227 76.7064 81.4298 76.8168 80.4658C77.0353 78.5582 77.3733 76.6652 77.6959 74.7657C77.7857 74.237 77.9223 73.686 77.9604 73.1524C77.9661 73.073 77.9738 72.9444 77.8652 72.9826C77.7898 73.0091 77.754 73.1602 77.738 73.2212C77.596 73.7621 77.5806 74.3311 77.5481 74.8768C77.493 75.8016 77.4391 76.7264 77.3857 77.6511C77.3704 77.9158 77.3575 78.7075 77.3599 78.4439C77.363 78.099 77.3232 77.7485 77.2965 77.4105C77.2314 76.5839 77.1558 75.7597 77.08 74.9354C77.067 74.7945 77.0505 74.6634 77.0583 74.5217C77.06 74.4907 77.0558 74.4614 77.0555 74.4308C77.0531 74.1908 77.1198 74.8994 77.1333 75.1378C77.2468 77.1363 77.1225 79.1854 77.0996 81.2017C77.0928 81.8065 77.0596 82.419 77.0746 83.0216C77.0759 83.0764 77.0849 83.2372 77.0954 83.1824C77.1441 82.9273 77.0946 82.6291 77.089 82.3795C77.0309 79.7913 77.4364 77.165 77.9445 74.5844C77.9519 74.5467 78.0015 74.1447 78.0567 74.1001C78.0718 74.0878 78.0695 74.1361 78.0714 74.1556C78.0792 74.2351 78.0833 74.3154 78.0855 74.3959C78.0981 74.8656 78.094 75.3515 78.0806 75.822C78.0268 77.7083 77.8972 79.6 77.839 81.487C77.8225 82.0223 77.7725 82.5581 77.7526 83.0934C77.7515 83.1212 77.7508 83.1489 77.7484 83.1767C77.7438 83.2314 77.739 83.2351 77.7325 83.1699C77.6789 82.631 77.72 82.0573 77.7514 81.5098C77.8734 79.3777 78.2502 77.2332 78.3316 75.1037C78.3363 74.9796 78.3236 74.8597 78.3239 74.7367C78.3252 74.1209 78.4402 75.9487 78.4654 76.5608C78.5265 78.0475 78.5241 79.5712 78.4396 81.0751C78.3879 81.9955 78.3146 82.9208 78.2358 83.8419C78.1904 84.3709 78.1784 82.7967 78.1885 82.2695C78.2068 81.3147 78.3207 80.3585 78.3603 79.4036C78.3975 78.5048 78.4443 77.6141 78.5215 76.7128C78.5267 76.6527 78.6191 75.8802 78.6381 75.8959C78.7371 75.9779 78.7779 76.2386 78.8073 76.3607C78.8681 76.6134 78.9061 76.875 78.9547 77.1321C79.0442 77.6054 79.0381 78.0345 79.0173 78.5264C78.9865 79.2536 78.9517 79.9747 78.8819 80.7035C78.7936 81.626 78.7134 82.5505 78.6177 83.4731C78.5826 83.8111 78.5343 84.1475 78.5054 84.4858C78.5037 84.5054 78.4886 84.8437 78.4683 84.8484C78.357 84.8742 77.9275 84.0765 77.895 84.0282" stroke="#FFFEFE" stroke-linecap="round"/>
<path d="M76.0794 81.5271C76.1733 82.2875 76.3098 83.0523 76.3487 83.8259C76.3632 84.1158 76.3481 84.4113 76.3487 84.7031C76.3495 85.0504 76.3359 84.9226 76.3061 85.1837C76.2839 85.3781 76.2543 85.5785 76.2092 85.7707C76.2059 85.7846 76.1499 85.4082 76.1433 85.3457C76.1088 85.0158 76.1038 84.6778 76.0602 84.3504C76.0327 84.144 76.0384 84.4355 76.0373 84.4772C75.9964 86.0091 75.9702 87.5424 75.8386 89.0792C75.7504 90.1097 75.6352 91.1383 75.547 92.1687C75.4705 93.0611 75.3941 93.9535 75.3177 94.8458C75.293 95.1347 75.2682 95.4235 75.2435 95.7123C75.2278 95.8957 75.1776 96.115 75.2058 96.2928C75.2293 96.4409 75.2523 96.4655 75.3768 96.4386C75.5172 96.4083 75.6945 96.4001 75.833 96.4137C76.2589 96.4555 76.6848 96.4973 77.1108 96.5392C77.2698 96.5548 77.4289 96.5704 77.5879 96.586C77.621 96.5893 77.657 96.5975 77.6908 96.5961C77.7911 96.592 77.9092 96.055 77.9251 96.0018C78.2668 94.8617 78.3698 93.7478 78.3551 92.5962C78.3508 92.2552 78.4124 91.8923 78.4417 91.5496C78.4894 90.9927 78.5371 90.4359 78.5848 89.879C78.6857 88.7013 78.7595 87.5233 78.8604 86.3449C78.8948 85.9429 78.9398 85.6251 78.7839 85.2718C78.6856 85.0491 78.5624 84.854 78.4208 84.6659C78.2756 84.4731 78.1348 84.2363 77.9502 84.0861C77.8374 83.9942 77.7144 83.9478 77.5723 83.9339C77.4404 83.9209 77.3075 83.8989 77.1741 83.8965C77.0158 83.8936 76.7727 84.4264 76.6987 84.5491C76.5617 84.7766 76.4717 84.9272 76.5947 85.1667C76.6377 85.2505 76.8827 85.6785 77.0215 85.5906C77.1777 85.4917 77.3171 85.2626 77.4436 85.1211C77.4954 85.0631 77.6787 84.9232 77.6587 84.8213C77.621 84.6291 77.3206 84.7589 77.2396 84.8516C77.1259 84.982 76.9419 85.1927 76.8906 85.3632C76.8037 85.6522 77.5594 85.9092 77.7417 85.9595C77.8869 85.9996 78.0787 85.577 78.1423 85.4774C78.2074 85.3755 78.2413 85.3225 78.2975 85.2276C78.336 85.1626 78.2283 85.3625 78.1988 85.4324C78.0443 85.7981 77.9313 86.1325 77.8977 86.5259C77.8877 86.6423 78.012 86.3074 78.0242 86.2768C78.0449 86.2251 78.0929 86.1386 78.0394 86.1004C77.9868 86.0628 77.8997 86.0678 77.8381 86.0631C77.5905 86.0445 77.3299 86.0604 77.0807 86.1283C76.9316 86.1689 76.7724 86.2256 76.6374 86.3185C76.5362 86.3881 76.6975 86.4825 76.7404 86.5204C76.9174 86.6768 77.0909 86.8463 77.2726 86.9947C77.3559 87.0627 77.2014 87.164 77.1508 87.206C77.0519 87.288 76.9629 87.3504 76.856 87.4177C76.7951 87.456 76.6146 87.5269 76.6783 87.5432C76.7268 87.5557 77.4464 87.5742 77.4053 87.4646C77.3179 87.2321 76.9737 87.055 76.7962 86.9218C76.6347 86.8004 76.6241 86.7894 76.577 87.0241C76.3815 87.9968 76.1933 88.9699 75.9888 89.9415C75.9012 90.3579 75.8266 90.7888 75.711 91.2012C75.7081 91.2117 75.6412 91.427 75.6596 91.2572C75.7553 90.3736 75.9804 89.478 76.1798 88.6069C76.3175 88.0054 76.4597 87.403 76.6271 86.8075C76.675 86.6372 76.7766 86.1407 76.8068 86.3072C76.8956 86.7973 76.8392 87.5434 76.8279 88.0096C76.7969 89.2802 76.6919 90.544 76.5484 91.8171C76.4947 92.293 76.4112 92.7689 76.381 93.2447C76.3794 93.2709 76.4071 93.1971 76.4129 93.1711C76.5721 92.4568 76.7006 91.7378 76.8481 91.0217C77.1299 89.6535 77.442 88.2894 77.6957 86.9177C77.6983 86.9038 77.706 86.8636 77.7082 86.877C77.7155 86.9211 77.7127 86.9677 77.7116 87.0134C77.6879 87.9966 77.6112 88.9871 77.5439 89.9721C77.513 90.4235 77.4802 90.875 77.4474 91.3264C77.4208 91.6934 77.3353 92.0672 77.3652 92.4275C77.3696 92.481 77.3848 92.3189 77.3956 92.2648C77.4921 91.7844 77.5272 91.6317 77.661 91.0805C78.0738 89.3797 78.5632 87.6872 78.8894 85.9711C78.9076 85.8752 78.9216 85.7789 78.9367 85.6827C78.9559 85.5594 78.9741 85.4643 78.9234 85.6448C78.7353 86.3138 78.5617 86.9857 78.3665 87.6532C78.1093 88.5323 77.8206 89.4021 77.5435 90.2755C77.5127 90.3724 77.4828 90.4695 77.4524 90.5665C77.4278 90.645 77.3871 90.875 77.3693 90.799C77.3566 90.7447 77.3673 90.6841 77.3691 90.6264C77.3809 90.2445 77.4103 89.8068 77.4395 89.4352C77.5515 88.0113 77.7424 86.5955 77.989 85.1781C78.0087 85.0649 78.0285 84.9518 78.0497 84.8387C78.0599 84.7839 78.0408 84.7076 78.0833 84.6746C78.1176 84.648 78.0915 84.762 78.0915 84.8062C78.0919 85.0148 78.0651 86.084 78.0647 86.1028C78.0284 87.8307 77.9036 93.0121 78.0319 91.2792C78.1076 90.2553 78.1482 89.2052 78.0228 88.2072C77.992 87.9616 77.9658 87.8156 77.8832 87.6075C77.8581 87.5442 77.807 87.3811 77.7709 87.4447C77.7098 87.5523 77.6978 87.6816 77.6622 87.8003C77.4176 88.6174 77.1686 89.4332 76.9099 90.2464C76.3481 92.0133 75.7234 93.7578 75.25 95.549C75.0427 96.3331 75.163 95.8951 75.0182 96.4645C75.0079 96.5048 75.0028 96.619 74.9853 96.5851C74.9643 96.5442 74.9967 96.4862 75.004 96.4369C75.0255 96.2914 75.0478 96.1459 75.0715 96.0006C75.3605 94.2268 75.6925 92.4571 76.0211 90.6876C76.0439 90.5652 76.1123 90.1996 76.105 90.3226C76.0614 91.0618 75.9669 91.8089 75.8934 92.548C75.8106 93.3807 75.723 94.213 75.6269 95.0454C75.5885 95.3775 75.5223 95.7369 75.5104 96.0716C75.5075 96.1533 75.5544 95.911 75.5732 95.8301C75.7453 95.0913 75.9286 94.3557 76.1306 93.6229C76.2997 93.0096 76.4025 92.6635 76.5861 92.0789C76.6298 91.94 76.6747 91.8013 76.7209 91.6632C76.744 91.5944 76.7931 91.3935 76.8043 91.4621C76.8303 91.6207 76.7968 91.7911 76.7891 91.9559C76.7562 92.6571 76.711 93.3591 76.6509 94.0612C76.5866 94.8123 76.2666 97.0594 76.4203 96.3144C76.654 95.1822 76.8589 94.043 77.0595 92.9067C77.0952 92.7044 77.138 92.5023 77.1596 92.2992C77.1837 92.0737 77.0546 92.7444 77.0062 92.9677C76.7623 94.0914 76.5157 95.2194 76.3375 96.3516C76.3314 96.39 76.2555 96.6869 76.359 96.4863C76.5859 96.0462 76.789 95.587 76.9832 95.1315C77.1999 94.6232 77.4995 94.0194 77.5474 93.4603C77.5837 93.0359 77.5549 94.304 77.5502 94.7267C77.5456 95.1337 77.4614 96.3596 77.4964 95.9509C77.6118 94.6042 77.7233 93.2574 77.856 91.9106C77.8782 91.685 77.8944 91.4591 77.926 91.2339C77.9741 90.891 77.8665 91.9207 77.8332 92.2642C77.7432 93.1926 77.6464 94.1216 77.5345 95.0496C77.5144 95.2171 77.4741 95.5944 77.5012 95.1928C77.5707 94.1648 77.7308 93.133 77.8528 92.1056C77.8868 91.82 77.892 91.7737 77.9241 91.5197C77.9284 91.4853 77.9329 91.4508 77.9374 91.4164C77.9439 91.3673 77.9402 91.3919 77.941 91.4272C77.9499 91.8351 78.0125 92.236 78.0309 92.6428C78.0473 93.0069 78.0163 93.3733 78.0106 93.7395C78.0098 93.7921 78.0457 94.0225 77.9839 94.0508" stroke="#FFFEFE" stroke-linecap="round"/>
<path d="M76.3596 71.4624C76.3556 71.5087 76.3548 71.5564 76.3476 71.6025C76.3427 71.6339 76.2879 71.6024 76.2737 71.5952" stroke="#FFFEFE" stroke-linecap="round"/>
<path d="M79.596 76.0179C79.6142 76.0414 79.7059 76.1242 79.667 76.1574C79.6196 76.1979 79.5654 76.1977 79.5129 76.1981" stroke="#FFFEFE" stroke-linecap="round"/>
<path d="M76.4009 70.5444C76.402 70.5314 76.4103 70.4992 76.4004 70.4914C76.3867 70.4806 76.3802 70.4705 76.382 70.4493C76.3834 70.4332 76.3662 70.4327 76.3643 70.4209C76.3623 70.4079 76.3604 70.3851 76.3616 70.3718" stroke="#FFFEFE" stroke-linecap="round"/>
<path d="M77.6029 70.5328C77.6648 70.5346 77.7526 70.4898 77.8119 70.4626C77.8818 70.4305 78.1036 70.4407 78.0316 70.4336C77.6624 70.3974 76.5545 70.2886 76.9238 70.3248C77.1001 70.3421 77.264 70.3751 77.4474 70.3736C77.8783 70.3703 78.3006 70.3933 78.7251 70.4389C78.8141 70.4485 78.6594 70.4921 78.6285 70.4957C78.5565 70.5042 78.4781 70.5256 78.4076 70.5464C78.0676 70.6469 77.7248 70.7177 77.3855 70.8236C77.3608 70.8313 77.4359 70.8166 77.4605 70.8083C77.5273 70.7858 77.5956 70.7989 77.6607 70.8053" stroke="#FFFEFE" stroke-linecap="round"/>
<path d="M79.0793 71.1487C79.1329 71.1914 79.175 71.302 79.2066 71.3652C79.2296 71.4114 79.2937 71.4886 79.2888 71.546" stroke="#FFFEFE" stroke-linecap="round"/>
<path d="M79.5961 71.5918C79.7069 71.8526 79.7448 72.1118 79.7837 72.4037C79.7986 72.5152 79.8269 72.6257 79.8501 72.7346C79.8705 72.8303 79.8895 72.9252 79.8898 73.0263C79.89 73.0912 79.8879 73.1474 79.9043 73.2073" stroke="#FFFEFE" stroke-linecap="round"/>
<path d="M80.1994 70.7093C80.1933 70.7756 80.1951 70.756 80.2001 70.7016C80.2053 70.6441 80.2202 70.7654 80.218 70.7894" stroke="#FFFEFE" stroke-linecap="round"/>
<path d="M80.1552 70.752C80.1514 70.7951 80.1252 70.9714 80.1825 70.8644C80.211 70.8111 80.1827 70.7435 80.1871 70.6923" stroke="#FFFEFE" stroke-linecap="round"/>
</g>
<path d="M47.2197 121.02C45.54 119.735 44.2529 118.228 43.3583 116.501C42.4742 114.783 42.0187 112.947 41.9916 110.994C41.9834 109.037 42.4462 107.081 43.3798 105.125L47.8383 107.459C47.1185 109.332 46.9951 111.113 47.4679 112.801C47.9513 114.497 48.884 115.874 50.2659 116.932C51.0845 117.558 51.9545 117.997 52.8762 118.248C53.7978 118.499 54.6723 118.506 55.4996 118.268C56.3376 118.038 57.0341 117.501 57.5888 116.657C57.8373 116.279 58.0118 115.891 58.1125 115.495C58.2215 115.086 58.2525 114.674 58.2055 114.259C58.1691 113.853 58.0524 113.422 57.8554 112.968C57.6772 112.51 57.4252 112.042 57.0994 111.566L52.5338 104.945C52.1395 104.378 51.7399 103.721 51.335 102.976C50.9491 102.226 50.6601 101.389 50.4681 100.465C50.295 99.5373 50.3033 98.5398 50.4931 97.4728C50.7018 96.4014 51.1994 95.2671 51.9861 94.0699C53.1371 92.3183 54.4738 91.1351 55.9963 90.5202C57.5377 89.9009 59.1355 89.7794 60.7897 90.1556C62.4546 90.54 64.0589 91.3326 65.6027 92.5334C67.1677 93.7506 68.3598 95.1462 69.1789 96.7204C70.0063 98.282 70.4454 99.9725 70.4962 101.792C70.547 103.611 70.1918 105.489 69.4307 107.426L64.7418 105.114C65.2011 104.026 65.4056 102.961 65.3555 101.919C65.3242 100.872 65.0737 99.9039 64.604 99.0139C64.1449 98.132 63.5302 97.3774 62.7602 96.7499C62.003 96.1513 61.1997 95.7446 60.3502 95.5299C59.5195 95.3106 58.7284 95.311 57.9766 95.531C57.2355 95.7592 56.6331 96.2261 56.1694 96.9318C55.7305 97.5997 55.5404 98.2781 55.5991 98.967C55.666 99.6433 55.8664 100.299 56.2005 100.933C56.5534 101.563 56.9365 102.16 57.3497 102.722L60.5695 107.233C61.0169 107.841 61.4921 108.564 61.995 109.404C62.4979 110.244 62.8955 111.183 63.1879 112.221C63.4803 113.259 63.544 114.378 63.379 115.578C63.2245 116.785 62.7002 118.07 61.8059 119.431C60.8785 120.842 59.813 121.892 58.6096 122.581C57.425 123.265 56.181 123.638 54.8775 123.701C53.5739 123.764 52.2641 123.557 50.9479 123.079C49.6424 122.61 48.3996 121.924 47.2197 121.02Z" fill="white" fill-opacity="0.99"/>
<defs>
<clipPath id="clip0_1733_7">
<rect width="117.151" height="100.901" fill="white" transform="matrix(0.983789 0.178328 -0.227678 0.973985 24.4774 1.80444)"/>
</clipPath>
</defs>
</svg>
