<svg width="632" height="317" viewBox="0 0 632 317" fill="none" xmlns="http://www.w3.org/2000/svg">
<path d="M28.5277 174.26C24.1037 174.26 20.1137 173.49 16.5577 171.95C13.0297 170.41 10.1177 168.212 7.82172 165.356C5.55372 162.472 4.11172 159.056 3.49572 155.108L13.9957 153.512C14.8917 157.096 16.7257 159.868 19.4977 161.828C22.2977 163.788 25.5177 164.768 29.1577 164.768C31.3137 164.768 33.3437 164.432 35.2477 163.76C37.1517 163.088 38.6917 162.108 39.8677 160.82C41.0717 159.532 41.6737 157.95 41.6737 156.074C41.6737 155.234 41.5337 154.464 41.2537 153.764C40.9737 153.036 40.5537 152.392 39.9937 151.832C39.4617 151.272 38.7617 150.768 37.8937 150.32C37.0537 149.844 36.0737 149.438 34.9537 149.102L19.3297 144.482C17.9857 144.09 16.5297 143.572 14.9617 142.928C13.4217 142.256 11.9517 141.346 10.5517 140.198C9.17972 139.022 8.04572 137.538 7.14972 135.746C6.28172 133.926 5.84772 131.686 5.84772 129.026C5.84772 125.134 6.82772 121.872 8.78772 119.24C10.7757 116.58 13.4357 114.592 16.7677 113.276C20.1277 111.96 23.8517 111.316 27.9397 111.344C32.0837 111.372 35.7797 112.086 39.0277 113.486C42.2757 114.858 44.9917 116.86 47.1757 119.492C49.3597 122.124 50.8997 125.302 51.7957 129.026L40.9177 130.916C40.4697 128.788 39.6017 126.982 38.3137 125.498C37.0537 123.986 35.4997 122.838 33.6517 122.054C31.8317 121.27 29.8857 120.85 27.8137 120.794C25.7977 120.766 23.9217 121.074 22.1857 121.718C20.4777 122.334 19.0917 123.23 18.0277 124.406C16.9917 125.582 16.4737 126.954 16.4737 128.522C16.4737 130.006 16.9217 131.224 17.8177 132.176C18.7137 133.1 19.8197 133.842 21.1357 134.402C22.4797 134.934 23.8377 135.382 25.2097 135.746L36.0457 138.77C37.5297 139.162 39.1957 139.694 41.0437 140.366C42.8917 141.038 44.6697 141.976 46.3777 143.18C48.0857 144.384 49.4857 145.966 50.5777 147.926C51.6977 149.886 52.2577 152.378 52.2577 155.402C52.2577 158.538 51.5997 161.296 50.2837 163.676C48.9957 166.028 47.2457 167.988 45.0337 169.556C42.8217 171.124 40.2877 172.3 37.4317 173.084C34.6037 173.868 31.6357 174.26 28.5277 174.26ZM81.3828 174.26C76.8468 174.26 72.8848 173.238 69.4968 171.194C66.1088 169.15 63.4768 166.336 61.6008 162.752C59.7528 159.14 58.8288 154.996 58.8288 150.32C58.8288 145.56 59.7808 141.388 61.6847 137.804C63.5888 134.22 66.2348 131.42 69.6228 129.404C73.0108 127.388 76.9308 126.38 81.3828 126.38C85.9468 126.38 89.9228 127.402 93.3108 129.446C96.6988 131.49 99.3308 134.318 101.207 137.93C103.083 141.514 104.021 145.644 104.021 150.32C104.021 155.024 103.069 159.182 101.165 162.794C99.2888 166.378 96.6568 169.192 93.2688 171.236C89.8808 173.252 85.9188 174.26 81.3828 174.26ZM81.3828 164.768C85.4148 164.768 88.4108 163.424 90.3708 160.736C92.3308 158.048 93.3108 154.576 93.3108 150.32C93.3108 145.924 92.3168 142.424 90.3288 139.82C88.3408 137.188 85.3588 135.872 81.3828 135.872C78.6668 135.872 76.4268 136.488 74.6628 137.72C72.9268 138.924 71.6388 140.618 70.7988 142.802C69.9588 144.958 69.5388 147.464 69.5388 150.32C69.5388 154.716 70.5328 158.23 72.5208 160.862C74.5368 163.466 77.4908 164.768 81.3828 164.768ZM144.649 173L144.649 151.16C144.649 149.732 144.551 148.15 144.355 146.414C144.159 144.678 143.697 143.012 142.969 141.416C142.269 139.792 141.205 138.462 139.777 137.426C138.377 136.39 136.473 135.872 134.065 135.872C132.777 135.872 131.503 136.082 130.243 136.502C128.983 136.922 127.835 137.65 126.799 138.686C125.791 139.694 124.979 141.094 124.363 142.886C123.747 144.65 123.439 146.918 123.439 149.69L117.433 147.128C117.433 143.264 118.175 139.764 119.659 136.628C121.171 133.492 123.383 131 126.295 129.152C129.207 127.276 132.791 126.338 137.047 126.338C140.407 126.338 143.179 126.898 145.363 128.018C147.547 129.138 149.283 130.566 150.571 132.302C151.859 134.038 152.811 135.886 153.427 137.846C154.043 139.806 154.435 141.668 154.603 143.432C154.799 145.168 154.897 146.582 154.897 147.674L154.897 173L144.649 173ZM113.191 173L113.191 127.64L122.221 127.64L122.221 141.71L123.439 141.71L123.439 173L113.191 173ZM184.925 194.42C182.405 194.42 179.983 194.028 177.659 193.244C175.363 192.46 173.291 191.326 171.443 189.842C169.595 188.386 168.083 186.622 166.907 184.55L176.231 179.93C177.099 181.582 178.317 182.8 179.885 183.584C181.481 184.396 183.175 184.802 184.967 184.802C187.067 184.802 188.943 184.424 190.595 183.668C192.247 182.94 193.521 181.848 194.417 180.392C195.341 178.964 195.775 177.172 195.719 175.016L195.719 162.122L196.979 162.122L196.979 127.64L205.841 127.64L205.841 175.184C205.841 176.332 205.785 177.424 205.673 178.46C205.589 179.524 205.435 180.56 205.211 181.568C204.539 184.508 203.251 186.916 201.347 188.792C199.443 190.696 197.077 192.11 194.249 193.034C191.449 193.958 188.341 194.42 184.925 194.42ZM184.043 174.26C179.871 174.26 176.231 173.21 173.123 171.11C170.015 169.01 167.607 166.154 165.899 162.542C164.191 158.93 163.337 154.856 163.337 150.32C163.337 145.728 164.191 141.64 165.899 138.056C167.635 134.444 170.085 131.602 173.249 129.53C176.413 127.43 180.137 126.38 184.421 126.38C188.733 126.38 192.345 127.43 195.257 129.53C198.197 131.602 200.423 134.444 201.935 138.056C203.447 141.668 204.203 145.756 204.203 150.32C204.203 154.828 203.447 158.902 201.935 162.542C200.423 166.154 198.169 169.01 195.173 171.11C192.177 173.21 188.467 174.26 184.043 174.26ZM185.597 165.188C188.313 165.188 190.497 164.572 192.149 163.34C193.829 162.08 195.047 160.33 195.803 158.09C196.587 155.85 196.979 153.26 196.979 150.32C196.979 147.352 196.587 144.762 195.803 142.55C195.047 140.31 193.857 138.574 192.233 137.342C190.609 136.082 188.509 135.452 185.933 135.452C183.217 135.452 180.977 136.124 179.213 137.468C177.449 138.784 176.147 140.576 175.307 142.844C174.467 145.084 174.047 147.576 174.047 150.32C174.047 153.092 174.453 155.612 175.265 157.88C176.105 160.12 177.379 161.898 179.087 163.214C180.795 164.53 182.965 165.188 185.597 165.188Z" fill="white"/>
<g clip-path="url(#clip0_1640_44)">
<path d="M254.904 85.863C249.829 91.3885 244.273 95.7799 238.347 98.9583L228.605 104.411C213.519 113.944 202.493 121.837 195.821 127.865C183.672 138.827 176.041 150.737 173.125 163.262C169.847 177.39 171.692 191.615 178.609 205.553C185.933 220.396 196.752 229.57 210.773 232.825C213.985 233.574 217.549 234.124 220.54 234.416L221.074 224.264C218.981 224.115 216.789 223.785 214.523 223.256C205.311 221.115 197.628 215.905 191.67 207.768C185.436 199.311 183.421 190.789 185.528 181.726C189.517 164.556 203.605 149.225 227.409 136.127L238.059 130.178C247.506 124.461 255.678 116.667 262.361 106.989C268.979 97.3802 273.71 86.5778 276.431 74.8874C278.033 68.0193 278.485 59.2383 277.809 48.8002C276.857 34.6187 273.43 27.0358 267.298 25.6077C265.118 25.1092 262.524 25.8216 259.155 27.9338C250.936 33.2179 244.447 40.1902 239.859 48.6182C236.329 55.0566 233.228 63.934 230.649 75.0023C229.574 79.6089 228.777 88.3129 228.541 98.9395L238.598 92.2916C238.762 91.1197 238.994 89.9114 239.293 88.6532C240.925 81.6036 243.997 74.1625 248.396 66.5446C253.971 57.0272 258.16 54.5613 260.7 54.1735C261.395 54.0669 262.051 54.0937 262.73 54.25C265.838 54.9761 268.751 56.8202 266.848 65.0405C265.237 72.0105 261.215 79.0114 254.904 85.863Z" fill="#E2F5E3" fill-opacity="0.56"/>
<path d="M251.28 230.151C257.336 228.366 262.739 225.134 267.376 220.521C273.294 214.675 277.166 207.345 278.901 198.74C281.052 188.178 279.784 178.169 275.167 168.988C270.099 158.928 262.139 152.743 251.497 150.595C250.279 150.349 248.97 150.179 247.609 150.097L247.609 132.695L237.015 138.47L236.864 150.794C230.77 152.397 225.24 155.477 220.381 159.971C214.779 165.215 211.23 171.337 209.847 178.175C208.419 185.28 209.14 192.06 211.999 198.288C213.477 201.606 215.716 204.68 218.401 207.306C222.806 211.593 228.485 212.079 229.644 210.228C230.812 208.377 227.876 204.832 225.803 200.35C224.619 197.811 224.258 194.905 224.703 191.6C225.645 184.587 230.701 179.129 237.105 177.274L236.853 221.995L236.804 232.372C237.014 237.334 237.218 242.273 237.393 247.15C237.523 253.735 237.123 259.375 236.197 263.91C234.927 270.192 232.247 275.105 228.222 278.521C225.662 280.693 222.849 281.904 219.789 282.373C224.27 278.965 227.447 273.857 228.256 267.843C229.87 255.837 221.413 244.782 209.366 243.163C206.022 242.713 202.783 243.1 199.773 244.058C199.393 244.164 199.024 244.351 198.645 244.488C197.811 244.806 196.976 245.124 196.182 245.536C195.909 245.688 195.643 245.871 195.371 246.039C189.986 249.178 186.016 254.516 184.849 261.053C184.847 261.063 184.835 261.072 184.834 261.082C184.833 261.087 184.832 261.092 184.832 261.098C184.777 261.406 184.663 261.673 184.622 261.977C184.587 262.235 184.623 262.475 184.601 262.723C183.643 269.766 185.765 276.221 190.995 281.924C195.941 287.312 202.267 290.808 209.796 292.324C214.074 293.182 218.308 293.248 222.369 292.511C225.689 291.903 228.978 290.747 232.121 289.077C239.734 285.017 244.392 279 245.975 271.167C247.183 265.192 247.838 258.02 247.902 249.752L247.535 231.048L247.469 177.489C255.227 180.083 260.318 187.865 259.191 196.242C258.391 202.194 255.197 211.326 250.931 215.758L251.28 230.151Z" fill="#E2F5E3" fill-opacity="0.56"/>
<path d="M237 138.5L237 150.5L240 150L243.75 150.25L247.5 150.5L247.5 133L237 138.5Z" fill="white" fill-opacity="0.96" stroke="white" stroke-opacity="0.96"/>
<path d="M237 178H243H249V186.889L247.435 188H237V178Z" fill="#ABD9B1"/>
<path d="M237.125 180.125C237.309 180.102 237.497 179.965 237.684 179.906C237.916 179.834 238.145 179.764 238.375 179.687" stroke="#ABD9B1" stroke-width="3" stroke-linecap="round"/>
<path d="M237.375 179.187H237.625" stroke="#ABD9B1" stroke-width="3" stroke-linecap="round"/>
<path d="M237.563 179.188C237.563 178.853 237.564 178.853 237.813 178.688" stroke="#ABD9B1" stroke-width="3" stroke-linecap="round"/>
<path d="M238.437 179.438C238.797 179.438 239.108 179.297 239.437 179.188" stroke="#ABD9B1" stroke-width="3" stroke-linecap="round"/>
<path d="M239.437 179.188C239.424 179.08 239.233 179 239.125 179" stroke="#ABD9B1" stroke-width="3" stroke-linecap="round"/>
<path d="M238.625 178.938C238.888 178.938 239.192 178.966 239.437 178.861C239.652 178.769 239.561 178.813 239.375 178.813C239.232 178.813 238.934 178.871 238.826 178.736C238.755 178.647 239.224 178.563 239.281 178.563C240.018 178.563 240.818 178.438 241.594 178.438C242.499 178.438 243.384 178.5 244.299 178.5C244.734 178.5 245.103 178.625 245.528 178.625C245.787 178.625 246.222 178.544 246.437 178.688" stroke="#ABD9B1" stroke-width="3" stroke-linecap="round"/>
<path d="M238.75 178.75H238.688" stroke="#ABD9B1" stroke-width="3" stroke-linecap="round"/>
<path d="M237.875 179.062C237.92 179.023 237.947 179.018 238 179" stroke="#ABD9B1" stroke-width="3" stroke-linecap="round"/>
<path d="M238 179C238.063 178.993 238.128 178.957 238.187 178.938" stroke="#ABD9B1" stroke-width="3" stroke-linecap="round"/>
<path d="M237.375 179.125C237.701 179.125 237.957 178.847 238.25 178.812C238.337 178.802 238.412 178.693 238.5 178.687C238.672 178.677 238.744 178.693 238.875 178.562" stroke="#ABD9B1" stroke-width="3" stroke-linecap="round"/>
<path d="M232.125 212.375C232.258 212.392 232.375 212.859 232.375 213" stroke="#ABD9B1" stroke-width="3" stroke-linecap="round"/>
<path d="M232.375 213C232.375 214.022 232.75 215.09 232.75 216.125C232.75 217.522 233.375 218.864 233.375 220.278C233.375 221.081 233.375 221.884 233.375 222.688C233.375 223.49 233.201 224.514 233.528 225.25C233.748 225.747 233.75 226.815 233.75 227.368C233.75 227.778 233.75 228.188 233.75 228.597C233.75 229.168 234.125 229.654 234.125 230.188C234.125 230.573 234.465 233.805 234.681 233.743C234.942 233.668 235 232.122 235 231.847C235 231.13 235 230.412 235 229.694C235 225.424 234.694 220.997 235.118 216.757C235.284 215.102 235.724 213.481 236.028 211.847C236.085 211.538 236.238 211.15 236.25 210.847C236.275 210.202 236.375 211.054 236.375 211.257C236.375 212.881 236.274 214.514 236.618 216.063C236.717 216.508 236.519 217.001 236.687 217.438C236.843 217.842 236.875 218.196 236.875 218.625C236.875 219.333 236.875 220.042 236.875 220.75C236.875 222.399 237.125 223.96 237.125 225.597C237.125 226.514 237.25 227.418 237.25 228.319C237.25 229.275 237.5 230.188 237.5 231.125C237.5 232.946 237.625 234.744 237.625 236.563C237.625 238.208 237.625 239.854 237.625 241.5C237.625 242.133 237.648 242.77 237.625 243.403C237.606 243.932 237.564 244.541 237.493 245.069C237.395 245.804 237.36 245.875 236.625 245.875" stroke="#ABD9B1" stroke-width="3" stroke-linecap="round"/>
<path d="M236.25 186.5C236.25 187.396 236.625 188.219 236.625 189.118C236.625 189.788 236.75 190.388 236.75 191.069C236.75 193.843 236.75 196.616 236.75 199.389C236.75 202.907 236.625 206.477 236.625 209.965C236.625 211.194 236.625 212.424 236.625 213.653C236.625 214.394 236.969 215.891 236.25 216.25" stroke="#ABD9B1" stroke-width="3" stroke-linecap="round"/>
<path d="M237.437 152.437C237.683 152.241 237.994 152.106 238.319 152.094C238.612 152.082 238.895 151.844 239.187 151.844C239.383 151.844 239.578 151.75 239.769 151.75C239.98 151.75 240.236 151.719 240.444 151.681C240.859 151.603 241.25 151.627 241.665 151.592C242.34 151.536 243.044 151.531 243.719 151.531C243.94 151.531 244.154 151.469 244.373 151.469C244.584 151.469 244.796 151.469 245.007 151.469C245.828 151.469 246.648 151.469 247.469 151.469" stroke="#C9E8CC" stroke-width="3" stroke-linecap="round"/>
<path d="M236.563 152.937C236.768 152.937 236.935 152.888 237.063 152.719" stroke="#C9E8CC" stroke-width="3" stroke-linecap="round"/>
<path d="M237.063 152.719C237.151 152.683 237.197 152.614 237.283 152.576C237.328 152.557 237.435 152.547 237.469 152.517C237.485 152.503 237.58 152.449 237.545 152.439C237.474 152.419 237.268 152.54 237.33 152.498C237.428 152.433 237.589 152.385 237.668 152.28C237.757 152.162 238.018 152.11 238.156 152" stroke="#C9E8CC" stroke-width="3" stroke-linecap="round"/>
<path d="M238.156 152C237.982 152.01 237.823 152.108 237.656 152.125C237.6 152.131 237.371 152.219 237.424 152.219C237.604 152.219 237.754 152.125 237.882 152.007C237.967 151.928 238.184 151.871 238.297 151.846C238.444 151.813 238.668 151.75 238.788 151.663C238.835 151.629 238.941 151.657 239 151.632C239.071 151.602 239.202 151.604 239.278 151.596C239.405 151.581 239.603 151.635 239.712 151.556C239.796 151.494 239.993 151.484 240.097 151.465C240.347 151.42 240.563 151.346 240.821 151.313C241.089 151.278 241.354 151.281 241.625 151.281C242.2 151.281 242.775 151.281 243.351 151.281C243.742 151.281 244.133 151.281 244.524 151.281C245.019 151.281 245.514 151.281 246.009 151.281C246.721 151.281 247.387 151.412 248.094 151.5" stroke="#C9E8CC" stroke-width="3" stroke-linecap="round"/>
<path d="M236.344 151.594L236.438 151.594" stroke="#C9E8CC" stroke-linecap="round"/>
<path d="M236.438 151.594H236.5" stroke="#C9E8CC" stroke-linecap="round"/>
<path d="M236.5 151.594C236.626 151.58 236.708 151.4 236.828 151.373C236.93 151.351 237.014 151.179 237.109 151.158C237.171 151.144 237.21 151.077 237.264 151.038C237.352 150.975 237.46 151.004 237.538 150.955C237.715 150.844 237.907 150.814 238.101 150.774C238.231 150.748 238.37 150.712 238.498 150.672C238.575 150.648 238.721 150.691 238.781 150.639C238.865 150.565 238.997 150.605 239.09 150.547C239.137 150.518 239.271 150.469 239.328 150.469C239.532 150.469 239.752 150.383 239.962 150.375C240.104 150.37 240.255 150.344 240.406 150.344" stroke="#C9E8CC" stroke-linecap="round"/>
<path d="M237.094 151.125C236.957 151.14 236.772 151.309 236.656 151.375" stroke="#C9E8CC" stroke-linecap="round"/>
<path d="M248.406 150.937L248.5 150.937" stroke="#C9E8CC" stroke-linecap="round"/>
<path d="M248.5 150.937C248.677 150.937 248.94 150.892 249.094 150.969" stroke="#C9E8CC" stroke-linecap="round"/>
<path d="M248.844 150.656C248.912 150.656 249.032 150.657 249.063 150.719" stroke="#C9E8CC" stroke-linecap="round"/>
</g>
<path d="M237.318 248V187.52H247.44V238.508H274.152V248H237.318ZM293.951 249.26C290.675 249.26 287.903 248.644 285.635 247.412C283.367 246.152 281.645 244.486 280.469 242.414C279.321 240.342 278.747 238.06 278.747 235.568C278.747 233.384 279.111 231.424 279.839 229.688C280.567 227.924 281.687 226.412 283.199 225.152C284.711 223.864 286.671 222.814 289.079 222.002C290.899 221.414 293.027 220.882 295.463 220.406C297.927 219.93 300.587 219.496 303.443 219.104C306.327 218.684 309.337 218.236 312.473 217.76L308.861 219.818C308.889 216.682 308.189 214.372 306.761 212.888C305.333 211.404 302.925 210.662 299.537 210.662C297.493 210.662 295.519 211.138 293.615 212.09C291.711 213.042 290.381 214.68 289.625 217.004L280.385 214.106C281.505 210.27 283.633 207.19 286.769 204.866C289.933 202.542 294.189 201.38 299.537 201.38C303.569 201.38 307.111 202.038 310.163 203.354C313.243 204.67 315.525 206.826 317.009 209.822C317.821 211.418 318.311 213.056 318.479 214.736C318.647 216.388 318.731 218.194 318.731 220.154V248H309.869V238.172L311.339 239.768C309.295 243.044 306.901 245.452 304.157 246.992C301.441 248.504 298.039 249.26 293.951 249.26ZM295.967 241.196C298.263 241.196 300.223 240.79 301.847 239.978C303.471 239.166 304.759 238.172 305.711 236.996C306.691 235.82 307.349 234.714 307.685 233.678C308.217 232.39 308.511 230.92 308.567 229.268C308.651 227.588 308.693 226.23 308.693 225.194L311.801 226.118C308.749 226.594 306.131 227.014 303.947 227.378C301.763 227.742 299.887 228.092 298.319 228.428C296.751 228.736 295.365 229.086 294.161 229.478C292.985 229.898 291.991 230.388 291.179 230.948C290.367 231.508 289.737 232.152 289.289 232.88C288.869 233.608 288.659 234.462 288.659 235.442C288.659 236.562 288.939 237.556 289.499 238.424C290.059 239.264 290.871 239.936 291.935 240.44C293.027 240.944 294.371 241.196 295.967 241.196ZM361.039 248V226.16C361.039 224.732 360.941 223.15 360.745 221.414C360.549 219.678 360.087 218.012 359.359 216.416C358.659 214.792 357.595 213.462 356.167 212.426C354.767 211.39 352.863 210.872 350.455 210.872C349.167 210.872 347.893 211.082 346.633 211.502C345.373 211.922 344.225 212.65 343.189 213.686C342.181 214.694 341.369 216.094 340.753 217.886C340.137 219.65 339.829 221.918 339.829 224.69L333.823 222.128C333.823 218.264 334.565 214.764 336.049 211.628C337.561 208.492 339.773 206 342.685 204.152C345.597 202.276 349.181 201.338 353.437 201.338C356.797 201.338 359.569 201.898 361.753 203.018C363.937 204.138 365.673 205.566 366.961 207.302C368.249 209.038 369.201 210.886 369.817 212.846C370.433 214.806 370.825 216.668 370.993 218.432C371.189 220.168 371.287 221.582 371.287 222.674V248H361.039ZM329.581 248V202.64H338.611V216.71H339.829V248H329.581ZM401.315 269.42C398.795 269.42 396.373 269.028 394.049 268.244C391.753 267.46 389.681 266.326 387.833 264.842C385.985 263.386 384.473 261.622 383.297 259.55L392.621 254.93C393.489 256.582 394.707 257.8 396.275 258.584C397.871 259.396 399.565 259.802 401.357 259.802C403.457 259.802 405.333 259.424 406.985 258.668C408.637 257.94 409.911 256.848 410.807 255.392C411.731 253.964 412.165 252.172 412.109 250.016V237.122H413.369V202.64H422.231V250.184C422.231 251.332 422.175 252.424 422.063 253.46C421.979 254.524 421.825 255.56 421.601 256.568C420.929 259.508 419.641 261.916 417.737 263.792C415.833 265.696 413.467 267.11 410.639 268.034C407.839 268.958 404.731 269.42 401.315 269.42ZM400.433 249.26C396.261 249.26 392.621 248.21 389.513 246.11C386.405 244.01 383.997 241.154 382.289 237.542C380.581 233.93 379.727 229.856 379.727 225.32C379.727 220.728 380.581 216.64 382.289 213.056C384.025 209.444 386.475 206.602 389.639 204.53C392.803 202.43 396.527 201.38 400.811 201.38C405.123 201.38 408.735 202.43 411.647 204.53C414.587 206.602 416.813 209.444 418.325 213.056C419.837 216.668 420.593 220.756 420.593 225.32C420.593 229.828 419.837 233.902 418.325 237.542C416.813 241.154 414.559 244.01 411.563 246.11C408.567 248.21 404.857 249.26 400.433 249.26ZM401.987 240.188C404.703 240.188 406.887 239.572 408.539 238.34C410.219 237.08 411.437 235.33 412.193 233.09C412.977 230.85 413.369 228.26 413.369 225.32C413.369 222.352 412.977 219.762 412.193 217.55C411.437 215.31 410.247 213.574 408.623 212.342C406.999 211.082 404.899 210.452 402.323 210.452C399.607 210.452 397.367 211.124 395.603 212.468C393.839 213.784 392.537 215.576 391.697 217.844C390.857 220.084 390.437 222.576 390.437 225.32C390.437 228.092 390.843 230.612 391.655 232.88C392.495 235.12 393.769 236.898 395.477 238.214C397.185 239.53 399.355 240.188 401.987 240.188ZM451.019 249.302C447.659 249.302 444.887 248.742 442.703 247.622C440.519 246.502 438.783 245.074 437.495 243.338C436.207 241.602 435.255 239.754 434.639 237.794C434.023 235.834 433.617 233.986 433.421 232.25C433.253 230.486 433.169 229.058 433.169 227.966V202.64H443.417V224.48C443.417 225.88 443.515 227.462 443.711 229.226C443.907 230.962 444.355 232.642 445.055 234.266C445.783 235.862 446.847 237.178 448.247 238.214C449.675 239.25 451.593 239.768 454.001 239.768C455.289 239.768 456.563 239.558 457.823 239.138C459.083 238.718 460.217 238.004 461.225 236.996C462.261 235.96 463.087 234.546 463.703 232.754C464.319 230.962 464.627 228.694 464.627 225.95L470.633 228.512C470.633 232.376 469.877 235.876 468.365 239.012C466.881 242.148 464.683 244.654 461.771 246.53C458.859 248.378 455.275 249.302 451.019 249.302ZM465.845 248V233.93H464.627V202.64H474.791V248H465.845ZM499.275 249.26C495.999 249.26 493.227 248.644 490.959 247.412C488.691 246.152 486.969 244.486 485.793 242.414C484.645 240.342 484.071 238.06 484.071 235.568C484.071 233.384 484.435 231.424 485.163 229.688C485.891 227.924 487.011 226.412 488.523 225.152C490.035 223.864 491.995 222.814 494.403 222.002C496.223 221.414 498.351 220.882 500.787 220.406C503.251 219.93 505.911 219.496 508.767 219.104C511.651 218.684 514.661 218.236 517.797 217.76L514.185 219.818C514.213 216.682 513.513 214.372 512.085 212.888C510.657 211.404 508.249 210.662 504.861 210.662C502.817 210.662 500.843 211.138 498.939 212.09C497.035 213.042 495.705 214.68 494.949 217.004L485.709 214.106C486.829 210.27 488.957 207.19 492.093 204.866C495.257 202.542 499.513 201.38 504.861 201.38C508.893 201.38 512.435 202.038 515.487 203.354C518.567 204.67 520.849 206.826 522.333 209.822C523.145 211.418 523.635 213.056 523.803 214.736C523.971 216.388 524.055 218.194 524.055 220.154V248H515.193V238.172L516.663 239.768C514.619 243.044 512.225 245.452 509.481 246.992C506.765 248.504 503.363 249.26 499.275 249.26ZM501.291 241.196C503.587 241.196 505.547 240.79 507.171 239.978C508.795 239.166 510.083 238.172 511.035 236.996C512.015 235.82 512.673 234.714 513.009 233.678C513.541 232.39 513.835 230.92 513.891 229.268C513.975 227.588 514.017 226.23 514.017 225.194L517.125 226.118C514.073 226.594 511.455 227.014 509.271 227.378C507.087 227.742 505.211 228.092 503.643 228.428C502.075 228.736 500.689 229.086 499.485 229.478C498.309 229.898 497.315 230.388 496.503 230.948C495.691 231.508 495.061 232.152 494.613 232.88C494.193 233.608 493.983 234.462 493.983 235.442C493.983 236.562 494.263 237.556 494.823 238.424C495.383 239.264 496.195 239.936 497.259 240.44C498.351 240.944 499.695 241.196 501.291 241.196ZM554.057 269.42C551.537 269.42 549.115 269.028 546.791 268.244C544.495 267.46 542.423 266.326 540.575 264.842C538.727 263.386 537.215 261.622 536.039 259.55L545.363 254.93C546.231 256.582 547.449 257.8 549.017 258.584C550.613 259.396 552.307 259.802 554.099 259.802C556.199 259.802 558.075 259.424 559.727 258.668C561.379 257.94 562.653 256.848 563.549 255.392C564.473 253.964 564.907 252.172 564.851 250.016V237.122H566.111V202.64H574.973V250.184C574.973 251.332 574.917 252.424 574.805 253.46C574.721 254.524 574.567 255.56 574.343 256.568C573.671 259.508 572.383 261.916 570.479 263.792C568.575 265.696 566.209 267.11 563.381 268.034C560.581 268.958 557.473 269.42 554.057 269.42ZM553.175 249.26C549.003 249.26 545.363 248.21 542.255 246.11C539.147 244.01 536.739 241.154 535.031 237.542C533.323 233.93 532.469 229.856 532.469 225.32C532.469 220.728 533.323 216.64 535.031 213.056C536.767 209.444 539.217 206.602 542.381 204.53C545.545 202.43 549.269 201.38 553.553 201.38C557.865 201.38 561.477 202.43 564.389 204.53C567.329 206.602 569.555 209.444 571.067 213.056C572.579 216.668 573.335 220.756 573.335 225.32C573.335 229.828 572.579 233.902 571.067 237.542C569.555 241.154 567.301 244.01 564.305 246.11C561.309 248.21 557.599 249.26 553.175 249.26ZM554.729 240.188C557.445 240.188 559.629 239.572 561.281 238.34C562.961 237.08 564.179 235.33 564.935 233.09C565.719 230.85 566.111 228.26 566.111 225.32C566.111 222.352 565.719 219.762 564.935 217.55C564.179 215.31 562.989 213.574 561.365 212.342C559.741 211.082 557.641 210.452 555.065 210.452C552.349 210.452 550.109 211.124 548.345 212.468C546.581 213.784 545.279 215.576 544.439 217.844C543.599 220.084 543.179 222.576 543.179 225.32C543.179 228.092 543.585 230.612 544.397 232.88C545.237 235.12 546.511 236.898 548.219 238.214C549.927 239.53 552.097 240.188 554.729 240.188ZM607.373 249.26C602.781 249.26 598.749 248.266 595.277 246.278C591.805 244.29 589.089 241.532 587.129 238.004C585.197 234.476 584.231 230.416 584.231 225.824C584.231 220.868 585.183 216.57 587.087 212.93C588.991 209.262 591.637 206.42 595.025 204.404C598.413 202.388 602.333 201.38 606.785 201.38C611.489 201.38 615.479 202.486 618.755 204.698C622.059 206.882 624.509 209.976 626.105 213.98C627.701 217.984 628.303 222.702 627.911 228.134H617.873V224.438C617.845 219.51 616.977 215.912 615.269 213.644C613.561 211.376 610.873 210.242 607.205 210.242C603.061 210.242 599.981 211.53 597.965 214.106C595.949 216.654 594.941 220.392 594.941 225.32C594.941 229.912 595.949 233.468 597.965 235.988C599.981 238.508 602.921 239.768 606.785 239.768C609.277 239.768 611.419 239.222 613.211 238.13C615.031 237.01 616.431 235.4 617.411 233.3L627.407 236.324C625.671 240.412 622.983 243.59 619.343 245.858C615.731 248.126 611.741 249.26 607.373 249.26ZM591.749 228.134V220.49H622.955V228.134H591.749Z" fill="white"/>
<defs>
<clipPath id="clip0_1640_44">
<rect width="276.164" height="276.164" fill="white" transform="translate(109.902 0.431152) rotate(9.05658)"/>
</clipPath>
</defs>
</svg>
