<svg width="83" height="57" viewBox="0 0 83 57" fill="none" xmlns="http://www.w3.org/2000/svg">
<path fill-rule="evenodd" clip-rule="evenodd" d="M5.53238 15.5459C5.53238 9.82611 10.4923 5.18109 16.6 5.18109H66.4C72.5077 5.18109 77.4676 9.82611 77.4676 15.5459V41.4541C77.4676 47.1739 72.5077 51.8189 66.4 51.8189H16.6C10.4923 51.8189 5.53238 47.1739 5.53238 41.4541C5.53238 40.0254 4.2931 38.8649 2.76762 38.8649C1.23928 38.8649 0 40.0254 0 41.4541C0 50.0338 7.43852 57 16.6 57H66.4C75.5615 57 83 50.0338 83 41.4541V15.5459C83 6.96619 75.5615 0 66.4 0H16.6C7.43852 0 0 6.96619 0 15.5459C0 16.9746 1.23928 18.1351 2.76762 18.1351C4.2931 18.1351 5.53238 16.9746 5.53238 15.5459ZM54.8773 24.6671L35.3093 15.5031C33.8898 14.8383 32.204 14.908 30.856 15.6907C29.5051 16.4707 28.6837 17.851 28.6837 19.3359C28.6837 24.2463 28.6837 32.7537 28.6837 37.6641C28.6837 39.149 29.5051 40.5293 30.856 41.3093C32.204 42.092 33.8898 42.1617 35.3093 41.4969C40.338 39.1436 49.4308 34.8846 54.8773 32.3329C56.4285 31.6065 57.4074 30.1243 57.4074 28.5C57.4074 26.8757 56.4285 25.3935 54.8773 24.6671ZM53.0227 28.1435C53.1658 28.2105 53.2574 28.3472 53.2574 28.5C53.2574 28.6528 53.1658 28.7895 53.0227 28.8565L33.4519 38.0206C33.3202 38.0822 33.1628 38.0768 33.0369 38.0045C32.9109 37.9321 32.8337 37.8034 32.8337 37.6641V19.3359C32.8337 19.1966 32.9109 19.0679 33.0369 18.9955C33.1628 18.9232 33.3202 18.9178 33.4519 18.9795L53.0227 28.1435ZM0 23.3189V33.6811C0 35.1124 1.23928 36.273 2.76762 36.273C4.2931 36.273 5.53238 35.1124 5.53238 33.6811V23.3189C5.53238 21.8876 4.2931 20.727 2.76762 20.727C1.23928 20.727 0 21.8876 0 23.3189Z" fill="black"/>
</svg>
